<svg width="385" height="385" viewBox="0 0 385 385" fill="none" xmlns="http://www.w3.org/2000/svg">
<circle cx="192.942" cy="192.471" r="129" fill="#D9D9D9"/>
<path d="M231.254 259.658H144.629C140.8 259.658 137.128 258.137 134.421 255.43C131.713 252.722 130.192 249.05 130.192 245.221V192.283C130.192 188.454 131.713 184.782 134.421 182.074C137.128 179.367 140.8 177.846 144.629 177.846H231.254C235.083 177.846 238.756 179.367 241.463 182.074C244.171 184.782 245.692 188.454 245.692 192.283V245.221C245.692 249.05 244.171 252.722 241.463 255.43C238.756 258.137 235.083 259.658 231.254 259.658ZM144.629 187.471C143.353 187.471 142.129 187.978 141.226 188.88C140.324 189.783 139.817 191.007 139.817 192.283V245.221C139.817 246.497 140.324 247.721 141.226 248.624C142.129 249.526 143.353 250.033 144.629 250.033H231.254C232.531 250.033 233.755 249.526 234.657 248.624C235.56 247.721 236.067 246.497 236.067 245.221V192.283C236.067 191.007 235.56 189.783 234.657 188.88C233.755 187.978 232.531 187.471 231.254 187.471H144.629Z" fill="#171921"/>
<path d="M226.442 187.471H149.442C148.166 187.471 146.941 186.964 146.039 186.061C145.136 185.159 144.629 183.935 144.629 182.658V153.783C144.629 143.572 148.686 133.78 155.906 126.56C163.126 119.339 172.919 115.283 183.129 115.283H192.754C202.965 115.283 212.758 119.339 219.978 126.56C227.198 133.78 231.254 143.572 231.254 153.783V182.658C231.254 183.935 230.747 185.159 229.845 186.061C228.942 186.964 227.718 187.471 226.442 187.471ZM154.254 177.846H221.629V153.783C221.629 146.125 218.587 138.781 213.172 133.365C207.757 127.95 200.413 124.908 192.754 124.908H183.129C175.471 124.908 168.127 127.95 162.712 133.365C157.297 138.781 154.254 146.125 154.254 153.783V177.846Z" fill="#171921"/>
<path d="M184.843 233.223C184.843 231.751 184.981 230.332 185.259 228.967C185.557 227.58 186.037 226.3 186.699 225.127C187.275 223.996 187.915 223.1 188.619 222.439C189.323 221.756 190.112 221.084 190.987 220.423C191.861 219.74 192.832 218.834 193.899 217.703C194.773 216.743 195.349 215.794 195.627 214.855C195.904 213.895 196.043 212.871 196.043 211.783C196.043 211.079 195.968 210.418 195.819 209.799C195.669 209.18 195.403 208.647 195.019 208.199C194.421 207.41 193.653 206.855 192.715 206.535C191.776 206.194 190.773 206.023 189.707 206.023C188.832 206.023 187.989 206.14 187.179 206.375C186.389 206.588 185.717 206.93 185.163 207.399C184.523 207.911 184.053 208.54 183.755 209.287C183.456 210.034 183.317 210.855 183.339 211.751H175.211C175.424 209.618 176 207.644 176.939 205.831C177.899 203.996 179.157 202.535 180.715 201.447C181.931 200.551 183.296 199.879 184.811 199.431C186.347 198.983 187.883 198.759 189.419 198.759C191.765 198.759 193.973 199.122 196.043 199.847C198.133 200.572 199.872 201.767 201.259 203.431C202.219 204.519 202.944 205.778 203.435 207.207C203.947 208.636 204.203 210.087 204.203 211.559C204.203 213.756 203.723 215.762 202.763 217.575C201.824 219.388 200.629 221.063 199.179 222.599C198.496 223.324 197.845 223.964 197.227 224.519C196.608 225.074 196.032 225.618 195.499 226.151C194.987 226.663 194.56 227.207 194.219 227.783C193.621 228.786 193.269 229.639 193.163 230.343C193.056 231.026 193.003 231.986 193.003 233.223H184.843ZM184.907 245.735V237.255H193.003V245.735H184.907Z" fill="#171921"/>
<path d="M327.991 135.52L329.498 112.475L308.787 122.692L327.991 135.52ZM58.7953 248.647C27.7699 174.82 62.4675 89.8204 136.295 58.795L134.745 55.1074C58.8812 86.9887 23.2264 174.333 55.1077 250.197L58.7953 248.647ZM136.295 58.795C204.587 30.0956 282.443 57.6348 318.287 120.362L321.76 118.378C284.925 53.9161 204.924 25.6151 134.745 55.1074L136.295 58.795ZM248.647 326.147C174.82 357.172 89.8207 322.474 58.7953 248.647L55.1077 250.197C86.989 326.061 174.333 361.715 250.197 329.834L248.647 326.147Z" fill="#F7A325"/>
</svg>
